<svg width="213" height="35" viewBox="0 0 213 35" fill="none" xmlns="http://www.w3.org/2000/svg">
<path d="M46.68 26.25V8.97H48.624L55.152 22.734L61.644 8.97H63.612V26.238H61.584V13.662L55.716 26.25H54.576L48.708 13.662V26.25H46.68ZM67.2169 26.25V8.97H69.3529V24.222H77.3689V26.25H67.2169ZM78.1988 26.25L83.9828 8.97H86.9588L92.7428 26.25H90.5228L85.1108 10.218H85.7828L80.4188 26.25H78.1988ZM80.9828 22.206V20.202H89.9588V22.206H80.9828ZM106.692 26.61C105.508 26.61 104.428 26.402 103.452 25.986C102.476 25.57 101.636 24.974 100.932 24.198C100.228 23.414 99.6836 22.47 99.2996 21.366C98.9236 20.254 98.7356 19.002 98.7356 17.61C98.7356 15.77 99.0636 14.178 99.7196 12.834C100.376 11.49 101.3 10.454 102.492 9.726C103.684 8.99 105.084 8.622 106.692 8.622C108.628 8.622 110.188 9.074 111.372 9.978C112.556 10.874 113.372 12.102 113.82 13.662L111.66 14.106C111.3 13.058 110.708 12.222 109.884 11.598C109.06 10.974 108.032 10.662 106.8 10.662C105.512 10.654 104.44 10.942 103.584 11.526C102.736 12.102 102.096 12.914 101.664 13.962C101.232 15.01 101.012 16.226 101.004 17.61C100.996 18.986 101.208 20.194 101.64 21.234C102.072 22.274 102.716 23.09 103.572 23.682C104.436 24.266 105.512 24.562 106.8 24.57C107.912 24.578 108.848 24.366 109.608 23.934C110.368 23.502 110.956 22.878 111.372 22.062C111.788 21.246 112.04 20.266 112.128 19.122H108.456V17.358H114.384C114.408 17.518 114.42 17.71 114.42 17.934C114.428 18.15 114.432 18.298 114.432 18.378C114.432 19.954 114.136 21.366 113.544 22.614C112.96 23.854 112.092 24.83 110.94 25.542C109.796 26.254 108.38 26.61 106.692 26.61ZM122.444 26.61C121.172 26.61 120.06 26.33 119.108 25.77C118.164 25.202 117.428 24.414 116.9 23.406C116.372 22.39 116.108 21.206 116.108 19.854C116.108 18.438 116.368 17.214 116.888 16.182C117.408 15.142 118.132 14.342 119.06 13.782C119.996 13.214 121.092 12.93 122.348 12.93C123.652 12.93 124.76 13.23 125.672 13.83C126.592 14.43 127.28 15.286 127.736 16.398C128.2 17.51 128.4 18.834 128.336 20.37H126.176V19.602C126.152 18.01 125.828 16.822 125.204 16.038C124.58 15.246 123.652 14.85 122.42 14.85C121.1 14.85 120.096 15.274 119.408 16.122C118.72 16.97 118.376 18.186 118.376 19.77C118.376 21.298 118.72 22.482 119.408 23.322C120.096 24.162 121.076 24.582 122.348 24.582C123.204 24.582 123.948 24.386 124.58 23.994C125.212 23.602 125.708 23.038 126.068 22.302L128.12 23.01C127.616 24.154 126.856 25.042 125.84 25.674C124.832 26.298 123.7 26.61 122.444 26.61ZM117.656 20.37V18.654H127.232V20.37H117.656ZM139.885 26.25V19.758C139.885 19.142 139.829 18.55 139.717 17.982C139.613 17.414 139.425 16.906 139.153 16.458C138.889 16.002 138.529 15.642 138.073 15.378C137.625 15.114 137.057 14.982 136.369 14.982C135.833 14.982 135.345 15.074 134.905 15.258C134.473 15.434 134.101 15.706 133.789 16.074C133.477 16.442 133.233 16.906 133.057 17.466C132.889 18.018 132.805 18.67 132.805 19.422L131.401 18.99C131.401 17.734 131.625 16.658 132.073 15.762C132.529 14.858 133.165 14.166 133.981 13.686C134.805 13.198 135.773 12.954 136.885 12.954C137.725 12.954 138.441 13.086 139.033 13.35C139.625 13.614 140.117 13.966 140.509 14.406C140.901 14.838 141.209 15.326 141.433 15.87C141.657 16.406 141.813 16.954 141.901 17.514C141.997 18.066 142.045 18.59 142.045 19.086V26.25H139.885ZM130.645 26.25V13.29H132.565V16.758H132.805V26.25H130.645ZM150.663 26.61C149.391 26.61 148.279 26.33 147.327 25.77C146.383 25.202 145.647 24.414 145.119 23.406C144.591 22.39 144.327 21.206 144.327 19.854C144.327 18.438 144.587 17.214 145.107 16.182C145.627 15.142 146.351 14.342 147.279 13.782C148.215 13.214 149.311 12.93 150.567 12.93C151.871 12.93 152.979 13.23 153.891 13.83C154.811 14.43 155.499 15.286 155.955 16.398C156.419 17.51 156.619 18.834 156.555 20.37H154.395V19.602C154.371 18.01 154.047 16.822 153.423 16.038C152.799 15.246 151.871 14.85 150.639 14.85C149.319 14.85 148.315 15.274 147.627 16.122C146.939 16.97 146.595 18.186 146.595 19.77C146.595 21.298 146.939 22.482 147.627 23.322C148.315 24.162 149.295 24.582 150.567 24.582C151.423 24.582 152.167 24.386 152.799 23.994C153.431 23.602 153.927 23.038 154.287 22.302L156.339 23.01C155.835 24.154 155.075 25.042 154.059 25.674C153.051 26.298 151.919 26.61 150.663 26.61ZM145.875 20.37V18.654H155.451V20.37H145.875ZM159.227 26.25V13.29H161.135V16.422L160.823 16.014C160.975 15.614 161.171 15.246 161.411 14.91C161.659 14.574 161.935 14.298 162.239 14.082C162.575 13.81 162.955 13.602 163.379 13.458C163.803 13.314 164.235 13.23 164.675 13.206C165.115 13.174 165.527 13.202 165.911 13.29V15.294C165.463 15.174 164.971 15.142 164.435 15.198C163.899 15.254 163.403 15.45 162.947 15.786C162.531 16.082 162.207 16.442 161.975 16.866C161.751 17.29 161.595 17.75 161.507 18.246C161.419 18.734 161.375 19.234 161.375 19.746V26.25H159.227ZM171.442 26.61C170.474 26.61 169.662 26.434 169.006 26.082C168.358 25.722 167.866 25.25 167.53 24.666C167.202 24.082 167.038 23.442 167.038 22.746C167.038 22.066 167.166 21.478 167.422 20.982C167.686 20.478 168.054 20.062 168.526 19.734C168.998 19.398 169.562 19.134 170.218 18.942C170.834 18.774 171.522 18.63 172.282 18.51C173.05 18.382 173.826 18.266 174.61 18.162C175.394 18.058 176.126 17.958 176.806 17.862L176.038 18.306C176.062 17.154 175.83 16.302 175.342 15.75C174.862 15.198 174.03 14.922 172.846 14.922C172.062 14.922 171.374 15.102 170.782 15.462C170.198 15.814 169.786 16.39 169.546 17.19L167.518 16.578C167.83 15.442 168.434 14.55 169.33 13.902C170.226 13.254 171.406 12.93 172.87 12.93C174.046 12.93 175.054 13.142 175.894 13.566C176.742 13.982 177.35 14.614 177.718 15.462C177.902 15.862 178.018 16.298 178.066 16.77C178.114 17.234 178.138 17.722 178.138 18.234V26.25H176.242V23.142L176.686 23.43C176.198 24.478 175.514 25.27 174.634 25.806C173.762 26.342 172.698 26.61 171.442 26.61ZM171.766 24.822C172.534 24.822 173.198 24.686 173.758 24.414C174.326 24.134 174.782 23.77 175.126 23.322C175.47 22.866 175.694 22.37 175.798 21.834C175.918 21.434 175.982 20.99 175.99 20.502C176.006 20.006 176.014 19.626 176.014 19.362L176.758 19.686C176.062 19.782 175.378 19.874 174.706 19.962C174.034 20.05 173.398 20.146 172.798 20.25C172.198 20.346 171.658 20.462 171.178 20.598C170.826 20.71 170.494 20.854 170.182 21.03C169.878 21.206 169.63 21.434 169.438 21.714C169.254 21.986 169.162 22.326 169.162 22.734C169.162 23.086 169.25 23.422 169.426 23.742C169.61 24.062 169.89 24.322 170.266 24.522C170.65 24.722 171.15 24.822 171.766 24.822ZM188.494 26.25C187.726 26.402 186.966 26.462 186.214 26.43C185.47 26.406 184.806 26.258 184.222 25.986C183.638 25.706 183.194 25.274 182.89 24.69C182.634 24.178 182.494 23.662 182.47 23.142C182.454 22.614 182.446 22.018 182.446 21.354V9.69H184.582V21.258C184.582 21.786 184.586 22.238 184.594 22.614C184.61 22.99 184.694 23.314 184.846 23.586C185.134 24.098 185.59 24.398 186.214 24.486C186.846 24.574 187.606 24.55 188.494 24.414V26.25ZM179.818 15.054V13.29H188.494V15.054H179.818ZM196.106 26.61C194.818 26.61 193.706 26.318 192.77 25.734C191.842 25.15 191.126 24.342 190.622 23.31C190.118 22.278 189.866 21.094 189.866 19.758C189.866 18.398 190.122 17.206 190.634 16.182C191.146 15.158 191.87 14.362 192.806 13.794C193.742 13.218 194.842 12.93 196.106 12.93C197.402 12.93 198.518 13.222 199.454 13.806C200.39 14.382 201.106 15.186 201.602 16.218C202.106 17.242 202.358 18.422 202.358 19.758C202.358 21.11 202.106 22.302 201.602 23.334C201.098 24.358 200.378 25.162 199.442 25.746C198.506 26.322 197.394 26.61 196.106 26.61ZM196.106 24.582C197.45 24.582 198.45 24.134 199.106 23.238C199.762 22.342 200.09 21.182 200.09 19.758C200.09 18.294 199.758 17.13 199.094 16.266C198.43 15.394 197.434 14.958 196.106 14.958C195.202 14.958 194.458 15.162 193.874 15.57C193.29 15.978 192.854 16.542 192.566 17.262C192.278 17.982 192.134 18.814 192.134 19.758C192.134 21.214 192.47 22.382 193.142 23.262C193.814 24.142 194.802 24.582 196.106 24.582ZM205 26.25V13.29H206.908V16.422L206.596 16.014C206.748 15.614 206.944 15.246 207.184 14.91C207.432 14.574 207.708 14.298 208.012 14.082C208.348 13.81 208.728 13.602 209.152 13.458C209.576 13.314 210.008 13.23 210.448 13.206C210.888 13.174 211.3 13.202 211.684 13.29V15.294C211.236 15.174 210.744 15.142 210.208 15.198C209.672 15.254 209.176 15.45 208.72 15.786C208.304 16.082 207.98 16.442 207.748 16.866C207.524 17.29 207.368 17.75 207.28 18.246C207.192 18.734 207.148 19.234 207.148 19.746V26.25H205Z" fill="#1A1A1A"/>
<rect y="0.25" width="34" height="34" rx="7" fill="#E9E9E9"/>
<path d="M17 26.75L16.8949 26.5916C16.1656 25.4917 15.8009 24.9418 15.3191 24.5437C14.8925 24.1913 14.401 23.9268 13.8727 23.7655C13.2759 23.5833 12.6185 23.5833 11.3036 23.5833H9.86C8.68389 23.5833 8.09583 23.5833 7.64662 23.3532C7.25148 23.1508 6.93022 22.8279 6.72889 22.4306C6.5 21.9791 6.5 21.3879 6.5 20.2056V11.1278C6.5 9.94544 6.5 9.35428 6.72889 8.90269C6.93022 8.50546 7.25148 8.1825 7.64662 7.9801C8.09583 7.75 8.68389 7.75 9.86 7.75H10.28C12.6322 7.75 13.8083 7.75 14.7068 8.21019C15.497 8.61499 16.1396 9.26091 16.5422 10.0554C17 10.9586 17 12.1409 17 14.5056M17 26.75V14.5056M17 26.75L17.1051 26.5916C17.8344 25.4917 18.1991 24.9418 18.6809 24.5437C19.1075 24.1913 19.599 23.9268 20.1273 23.7655C20.7241 23.5833 21.3815 23.5833 22.6964 23.5833H24.14C25.3161 23.5833 25.9042 23.5833 26.3534 23.3532C26.7485 23.1508 27.0698 22.8279 27.2711 22.4306C27.5 21.9791 27.5 21.3879 27.5 20.2056V11.1278C27.5 9.94544 27.5 9.35428 27.2711 8.90269C27.0698 8.50546 26.7485 8.1825 26.3534 7.9801C25.9042 7.75 25.3161 7.75 24.14 7.75H23.72C21.3678 7.75 20.1917 7.75 19.2932 8.21019C18.503 8.61499 17.8604 9.26091 17.4578 10.0554C17 10.9586 17 12.1409 17 14.5056" stroke="#1A1A1A" stroke-width="1.7" stroke-linecap="round" stroke-linejoin="round"/>
</svg>
