<svg width="100" height="100" viewBox="0 0 100 100" fill="none" xmlns="http://www.w3.org/2000/svg">
<rect width="100" height="100" rx="21" fill="#B2FF51"/>
<path d="M50.5 35.708V77.1247" stroke="black" stroke-width="4" stroke-linecap="round" stroke-linejoin="round"/>
<path d="M62.334 50.5H68.2507" stroke="black" stroke-width="4" stroke-linecap="round" stroke-linejoin="round"/>
<path d="M62.334 38.667H68.2507" stroke="black" stroke-width="4" stroke-linecap="round" stroke-linejoin="round"/>
<path d="M23.8743 68.25C23.0898 68.25 22.3373 67.9383 21.7825 67.3835C21.2277 66.8287 20.916 66.0763 20.916 65.2917V26.8333C20.916 26.0487 21.2277 25.2963 21.7825 24.7415C22.3373 24.1867 23.0898 23.875 23.8743 23.875H38.666C41.8044 23.875 44.8143 25.1217 47.0334 27.3409C49.2526 29.5601 50.4993 32.5699 50.4993 35.7083C50.4993 32.5699 51.7461 29.5601 53.9653 27.3409C56.1844 25.1217 59.1943 23.875 62.3327 23.875H77.1243C77.9089 23.875 78.6614 24.1867 79.2162 24.7415C79.771 25.2963 80.0827 26.0487 80.0827 26.8333V65.2917C80.0827 66.0763 79.771 66.8287 79.2162 67.3835C78.6614 67.9383 77.9089 68.25 77.1243 68.25H59.3743C57.0206 68.25 54.7632 69.185 53.0988 70.8494C51.4344 72.5138 50.4993 74.7712 50.4993 77.125C50.4993 74.7712 49.5643 72.5138 47.8999 70.8494C46.2355 69.185 43.9781 68.25 41.6243 68.25H23.8743Z" stroke="black" stroke-width="4" stroke-linecap="round" stroke-linejoin="round"/>
<path d="M32.75 50.5H38.6667" stroke="black" stroke-width="4" stroke-linecap="round" stroke-linejoin="round"/>
<path d="M32.75 38.667H38.6667" stroke="black" stroke-width="4" stroke-linecap="round" stroke-linejoin="round"/>
</svg>
